<svg xmlns="http://www.w3.org/2000/svg" xmlns:xlink="http://www.w3.org/1999/xlink" version="1.1" width="325" height="110" viewBox="145 40 283 170" xml:space="preserve" color="#000">
<desc>Created with Fabric.js 5.2.4</desc>
    <defs>
</defs>
    <g transform="matrix(1 0 0 1 540 540)" id="1b19caa0-1739-44a9-a9f2-d25f9bbe4bd0">
</g>
    <g transform="matrix(1 0 0 1 286.31 114.16)">
<g style="" vector-effect="non-scaling-stroke">
		<g transform="matrix(0.92 0 0 0.92 0 -13.44)">
<rect style="stroke: none; stroke-width: 1; stroke-dasharray: none; stroke-linecap: butt; stroke-dashoffset: 0; stroke-linejoin: miter; stroke-miterlimit: 4; fill: none; fill-rule: nonzero; opacity: 1;" vector-effect="non-scaling-stroke" x="-293.4145" y="-89.835" rx="0" ry="0" width="586.829" height="179.67"/>
</g>
    <g transform="matrix(0.96 0 0 0.96 0.23 -17.72)">
<path fill="currentColor" style="stroke: none; stroke-width: 1; stroke-dasharray: none; stroke-linecap: butt; stroke-dashoffset: 0; stroke-linejoin: miter; stroke-miterlimit: 4; fill-rule: nonzero; opacity: 1;" vector-effect="non-scaling-stroke" transform=" translate(-767.79, -81.12)" d="M 560.091 135.428 Q 543.779 135.428 531.619 128.85399999999998 Q 519.4590000000001 122.27999999999997 512.7330000000001 110.34799999999998 Q 506.01700000000005 98.41599999999998 506.01700000000005 82.56099999999998 Q 506.01700000000005 66.23899999999998 513.037 53.708999999999975 Q 520.057 41.168999999999976 532.37 33.99699999999997 Q 544.682 26.81499999999997 560.689 26.81499999999997 Q 578.521 26.81499999999997 588.6379999999999 33.76899999999997 L 584.5629999999999 57.78499999999997 Q 580.1829999999999 55.66599999999997 575.4229999999999 54.68799999999997 Q 570.6639999999999 53.70899999999997 566.4369999999999 53.70899999999997 Q 554.0489999999999 53.70899999999997 546.9519999999999 61.108999999999966 Q 539.8459999999999 68.50999999999996 539.8459999999999 81.64899999999997 Q 539.8459999999999 94.03699999999998 546.7239999999999 101.05699999999997 Q 553.593 108.08699999999997 565.829 108.08699999999997 Q 570.664 108.08699999999997 574.664 107.17499999999997 Q 578.673 106.27299999999997 584.563 103.84999999999997 L 588.79 127.72399999999996 Q 575.6519999999999 135.42799999999997 560.0899999999999 135.42799999999997 M 627.0179999999999 132.99799999999996 L 593.0269999999999 132.99799999999996 L 593.0269999999999 29.075 L 627.0169999999999 29.075 L 627.0169999999999 68.196 L 659.184 68.196 L 659.184 29.076 L 693.327 29.076 L 693.327 132.996 L 659.184 132.996 L 659.184 92.06 L 627.0169999999999 92.06 Z M 776.2529999999999 132.99799999999996 L 703.2929999999999 132.99799999999996 L 703.2929999999999 29.075 L 776.2529999999999 29.075 L 776.2529999999999 52.037 L 740.001 52.037 L 740.001 70.467 L 773.0799999999999 70.467 L 773.0799999999999 89.495 L 740.001 89.495 L 740.001 109.283 L 776.2529999999999 109.283 Z M 861.8969999999999 135.42799999999997 Q 851.0189999999999 135.42799999999997 843.9229999999999 132.17899999999997 Q 836.8259999999999 128.92999999999998 832.5889999999999 123.19199999999998 Q 828.362 117.44399999999997 826.2529999999999 109.74899999999998 Q 824.1339999999999 102.04499999999999 823.3829999999999 93.13399999999999 L 816.2769999999999 93.13399999999999 L 816.2769999999999 133.005 L 783.198 133.005 L 783.198 29.085 L 825.948 29.085 Q 850.715 29.085 861.668 37.768 Q 872.622 46.451 872.622 61.260999999999996 Q 872.622 70.172 867.7869999999999 77.193 Q 862.9509999999999 84.213 852.2249999999999 88.89699999999999 Q 852.8329999999999 92.222 853.2889999999999 94.33999999999999 Q 853.7359999999999 96.44999999999999 854.6479999999999 99.02399999999999 Q 856.6139999999999 104.45799999999998 859.5589999999999 106.576 Q 862.5039999999999 108.68599999999999 867.6339999999999 108.68599999999999 Q 870.959 108.68599999999999 874.2839999999999 107.78299999999999 L 876.0989999999999 132.54899999999998 Q 873.078 133.765 869.6769999999999 134.59199999999998 Q 866.276 135.428 861.8969999999999 135.428 M 816.2769999999999 51.590999999999994 L 816.2769999999999 72.434 L 822.015 72.434 Q 833.197 72.434 837.805 69.944 Q 842.4119999999999 67.456 842.4119999999999 61.414 Q 842.4119999999999 56.274 838.631 53.937 Q 834.8589999999999 51.590999999999994 826.699 51.590999999999994 Z M 912.7869999999999 132.997 L 878.6539999999999 132.997 L 878.6539999999999 29.077 L 912.7879999999999 29.077 Z M 973.9769999999999 135.42800000000003 Q 957.5129999999999 135.42800000000003 944.9729999999998 128.47400000000002 Q 932.4329999999999 121.53000000000002 925.4129999999999 109.29400000000001 Q 918.3919999999999 97.05700000000002 918.3919999999999 81.19200000000001 Q 918.3919999999999 65.185 925.4119999999999 52.94900000000001 Q 932.4329999999999 40.71300000000001 944.973 33.76900000000001 Q 957.5129999999999 26.815000000000012 973.976 26.815000000000012 Q 990.4390000000001 26.815000000000012 1002.98 33.69300000000001 Q 1015.51 40.561000000000014 1022.54 52.79700000000001 Q 1029.561 65.03300000000002 1029.561 81.19200000000001 Q 1029.561 97.057 1022.5409999999999 109.293 Q 1015.511 121.52900000000001 1002.9799999999999 128.47400000000002 Q 990.4399999999999 135.42800000000003 973.9769999999999 135.42800000000003 M 973.9769999999999 107.93500000000003 Q 983.4949999999999 107.93500000000003 989.6039999999998 100.53500000000003 Q 995.7219999999999 93.13500000000002 995.7219999999999 81.05000000000003 Q 995.7219999999999 72.89000000000003 992.9289999999999 66.69500000000002 Q 990.1359999999999 60.500000000000014 985.2239999999998 56.95800000000002 Q 980.3219999999998 53.40500000000002 973.8239999999998 53.40500000000002 Q 964.3049999999998 53.40500000000002 958.2639999999999 61.03300000000002 Q 952.2209999999999 68.66300000000003 952.2209999999999 81.05000000000003 Q 952.2209999999999 93.13400000000003 958.2629999999999 100.53400000000002 Q 964.305 107.93400000000001 973.9759999999999 107.93500000000002" stroke-linecap="round"/>
</g>
    <g transform="matrix(0.92 0 0 0.92 -11.83 76.06)">
<rect  style="stroke: none; stroke-width: 1; stroke-dasharray: none; stroke-linecap: butt; stroke-dashoffset: 0; stroke-linejoin: miter; stroke-miterlimit: 4; fill: none; fill-rule: nonzero; opacity: 1;" vector-effect="non-scaling-stroke" x="-155.211" y="-21.47" rx="0" ry="0" width="310.422" height="42.94"/>
</g>
    <g transform="matrix(0.96 0 0 0.96 -11.6 77.33)">
<path fill="currentColor" style="stroke: none; stroke-width: 1; stroke-dasharray: none; stroke-linecap: butt; stroke-dashoffset: 0; stroke-linejoin: miter; stroke-miterlimit: 4; fill-rule: nonzero; opacity: 1;" vector-effect="non-scaling-stroke" transform=" translate(-755.52, -179.71)" d="M 631.397 184.312 L 634.028 185.43300000000002 Q 633.0210000000001 187.59900000000002 631.245 188.92900000000003 Q 629.478 190.26900000000003 626.59 190.26900000000003 Q 625.1460000000001 190.26900000000003 623.5400000000001 189.70900000000003 Q 621.9340000000001 189.14900000000003 620.5670000000001 187.62900000000002 Q 619.1900000000002 186.11700000000002 618.2870000000001 183.47600000000003 Q 617.3850000000001 180.84400000000002 617.3850000000001 176.73100000000002 Q 617.3850000000001 172.68400000000003 618.2490000000001 170.05200000000002 Q 619.1230000000002 167.41200000000003 620.4720000000001 165.90200000000002 Q 621.83 164.382 623.455 163.792 Q 625.0790000000001 163.193 626.628 163.193 Q 628.034 163.193 629.1740000000001 163.554 Q 630.3140000000002 163.915 631.1780000000001 164.514 Q 632.0430000000001 165.104 632.6790000000001 165.901 Q 633.306 166.68900000000002 633.705 167.56300000000002 L 630.998 168.608 Q 630.418 167.126 629.393 166.366 Q 628.3570000000001 165.60600000000002 626.628 165.60600000000002 Q 625.403 165.60600000000002 624.301 166.13800000000003 Q 623.1990000000001 166.66100000000003 622.3720000000001 167.94300000000004 Q 621.5360000000001 169.21600000000004 621.052 171.35400000000004 Q 620.567 173.48200000000003 620.567 176.73100000000005 Q 620.567 179.94200000000006 621.071 182.07100000000005 Q 621.575 184.20000000000005 622.4200000000001 185.46100000000004 Q 623.2750000000001 186.72500000000005 624.3770000000001 187.26600000000005 Q 625.469 187.80800000000005 626.666 187.80800000000005 Q 628.6510000000001 187.80800000000005 629.696 186.82000000000005 Q 630.7420000000001 185.82300000000004 631.397 184.31200000000004 M 651.253 189.73600000000005 L 648.755 189.73600000000005 L 648.612 187.57000000000005 Q 647.824 188.65300000000005 646.5409999999999 189.37500000000006 Q 645.2579999999999 190.09700000000007 643.2729999999999 190.09700000000007 Q 642.228 190.09700000000007 641.1639999999999 189.79300000000006 Q 640.0909999999999 189.48000000000008 639.2449999999999 188.81500000000005 Q 638.3999999999999 188.15000000000006 637.858 187.09500000000006 Q 637.3169999999999 186.05000000000007 637.3169999999999 184.54000000000005 Q 637.3169999999999 181.35700000000006 639.9289999999999 179.51400000000004 Q 642.5509999999998 177.68100000000004 648.3649999999999 177.56700000000004 L 648.3649999999999 175.94200000000004 Q 648.3649999999999 174.21300000000002 647.5099999999999 173.07300000000004 Q 646.6649999999998 171.93300000000005 644.6409999999998 171.93300000000005 Q 643.0929999999998 171.93300000000005 642.0669999999999 172.71300000000005 Q 641.031 173.49100000000004 640.4899999999999 174.97300000000004 L 637.858 173.95700000000005 Q 638.722 172.00900000000004 640.4509999999999 170.85000000000005 Q 642.1899999999999 169.70000000000005 644.7169999999999 169.70000000000005 Q 646.3789999999999 169.70000000000005 647.6049999999999 170.14700000000005 Q 648.8309999999999 170.60300000000004 649.6479999999999 171.38200000000006 Q 650.4549999999999 172.15200000000007 650.8539999999999 173.21600000000007 Q 651.2529999999999 174.28000000000006 651.2529999999999 175.51600000000008 Z M 644.062 187.78900000000004 Q 645.439 187.78900000000004 646.484 187.17100000000005 Q 647.529 186.55400000000006 648.365 185.62300000000005 L 648.365 179.84700000000004 Q 644.214 179.91300000000004 642.2570000000001 181.01500000000004 Q 640.3090000000001 182.11700000000005 640.3090000000001 184.32100000000005 Q 640.3090000000001 186.16400000000004 641.4110000000001 186.97100000000006 Q 642.513 187.78800000000007 644.061 187.78800000000007 M 659.916 189.72800000000007 L 657.028 189.72800000000007 L 657.028 170.23300000000006 L 659.66 170.23300000000006 L 659.764 172.97900000000007 Q 660.486 171.35400000000007 661.607 170.55600000000007 Q 662.728 169.75800000000007 664.096 169.75800000000007 Q 664.609 169.75800000000007 664.97 169.79600000000008 Q 665.331 169.8340000000001 665.835 170.01600000000008 L 665.113 172.72200000000007 Q 664.7900000000001 172.64600000000007 664.4480000000001 172.59800000000007 Q 664.0960000000001 172.54100000000008 663.6680000000001 172.54100000000008 Q 662.9470000000001 172.54100000000008 662.3860000000001 172.84500000000008 Q 661.8260000000001 173.15900000000008 661.3790000000001 173.70000000000007 Q 660.9230000000001 174.24200000000008 660.5620000000001 174.94500000000008 Q 660.2010000000001 175.64800000000008 659.9160000000002 176.40800000000007 Z M 680.6360000000001 185.04300000000006 L 682.9060000000001 186.44900000000007 Q 681.966 187.93100000000007 680.2750000000001 189.01400000000007 Q 678.5740000000001 190.09700000000007 676.0470000000001 190.09700000000007 Q 674.2800000000001 190.09700000000007 672.8360000000001 189.49900000000005 Q 671.3920000000002 188.90000000000006 670.3470000000001 187.67500000000004 Q 669.302 186.45000000000002 668.7230000000001 184.58700000000005 Q 668.143 182.73500000000004 668.143 180.17000000000004 Q 668.143 177.42400000000004 668.741 175.44000000000005 Q 669.331 173.45300000000006 670.404 172.17100000000005 Q 671.468 170.88800000000006 672.893 170.29900000000004 Q 674.318 169.70100000000002 675.943 169.70100000000002 Q 677.7479999999999 169.70100000000002 679.097 170.29900000000004 Q 680.4549999999999 170.88900000000004 681.357 172.20900000000003 Q 682.26 173.52900000000002 682.707 175.58100000000002 Q 683.163 177.64200000000002 683.163 180.56900000000002 L 671.107 180.56900000000002 Q 671.136 182.621 671.554 184.01700000000002 Q 671.972 185.40400000000002 672.656 186.23100000000002 Q 673.3399999999999 187.06700000000004 674.261 187.42800000000003 Q 675.182 187.78900000000002 676.228 187.78800000000004 Q 677.092 187.78800000000004 677.805 187.51300000000003 Q 678.5079999999999 187.24700000000004 679.049 186.84800000000004 Q 679.591 186.44900000000004 679.98 185.96500000000003 Q 680.379 185.47000000000003 680.636 185.04300000000003 M 675.943 171.93300000000005 Q 673.919 171.93300000000005 672.693 173.45300000000006 Q 671.467 174.97300000000007 671.173 178.25000000000006 L 680.1610000000001 178.25000000000006 Q 680.094 176.48300000000006 679.7900000000001 175.27700000000004 Q 679.4770000000001 174.07000000000005 678.9350000000001 173.32900000000004 Q 678.394 172.58900000000003 677.653 172.26500000000004 Q 676.912 171.93300000000005 675.943 171.93300000000005 M 701.745 189.72700000000006 L 698.857 189.72700000000006 L 698.857 170.23300000000006 L 701.308 170.23300000000006 L 701.4879999999999 172.50300000000007 Q 702.505 170.99300000000008 703.8539999999999 170.33700000000007 Q 705.2119999999999 169.6910000000001 706.5809999999999 169.6910000000001 Q 708.348 169.6910000000001 709.6299999999999 170.3940000000001 Q 710.9119999999998 171.0970000000001 711.6339999999999 172.7600000000001 Q 712.68 171.1360000000001 714.1809999999999 170.4130000000001 Q 715.6809999999999 169.6910000000001 717.126 169.6910000000001 Q 718.389 169.6910000000001 719.434 169.9950000000001 Q 720.4789999999999 170.2990000000001 721.2389999999999 171.0210000000001 Q 721.9989999999999 171.7430000000001 722.4069999999999 172.9780000000001 Q 722.8249999999999 174.2040000000001 722.8249999999999 176.0480000000001 L 722.8249999999999 189.7280000000001 L 719.9369999999999 189.7280000000001 L 719.9369999999999 176.58800000000008 Q 719.9369999999999 175.24900000000008 719.7189999999999 174.36500000000007 Q 719.501 173.48100000000005 719.092 172.95900000000006 Q 718.674 172.43700000000007 718.028 172.23700000000005 Q 717.373 172.03800000000004 716.508 172.03800000000004 Q 715.14 172.03800000000004 714.124 172.82600000000005 Q 713.1170000000001 173.62400000000005 712.2810000000001 174.96400000000006 L 712.2810000000001 189.72700000000006 L 709.392 189.72700000000006 L 709.392 176.22700000000006 Q 709.392 172.03800000000007 705.9630000000001 172.03800000000007 Q 704.595 172.03800000000007 703.5880000000001 172.82600000000008 Q 702.5720000000001 173.62400000000008 701.7450000000001 174.96400000000008 Z M 741.141 189.73700000000005 L 738.6429999999999 189.73700000000005 L 738.4999999999999 187.57000000000005 Q 737.7119999999999 188.65300000000005 736.4289999999999 189.37500000000006 Q 735.1459999999998 190.09700000000007 733.1609999999998 190.09700000000007 Q 732.1159999999999 190.09700000000007 731.0519999999998 189.79300000000006 Q 729.9789999999998 189.48000000000008 729.1329999999998 188.81500000000005 Q 728.2879999999998 188.15000000000006 727.7459999999999 187.09500000000006 Q 727.2049999999998 186.05000000000007 727.2049999999998 184.54000000000005 Q 727.2049999999998 181.35700000000006 729.8169999999998 179.51400000000004 Q 732.4389999999997 177.68100000000004 738.2529999999998 177.56700000000004 L 738.2529999999998 175.94200000000004 Q 738.2529999999998 174.21300000000002 737.3979999999998 173.07300000000004 Q 736.5529999999998 171.93300000000005 734.5289999999998 171.93300000000005 Q 732.9809999999998 171.93300000000005 731.9549999999998 172.71300000000005 Q 730.9189999999999 173.49100000000004 730.3779999999998 174.97300000000004 L 727.7459999999999 173.95700000000005 Q 728.6109999999999 172.00900000000004 730.3399999999999 170.85000000000005 Q 732.078 169.70000000000005 734.6049999999999 169.70000000000005 Q 736.2679999999999 169.70000000000005 737.4929999999999 170.14700000000005 Q 738.7189999999999 170.60300000000004 739.536 171.38200000000006 Q 740.343 172.15200000000007 740.742 173.21600000000007 Q 741.141 174.28000000000006 741.141 175.51600000000008 Z M 733.9499999999999 187.78900000000004 Q 735.3269999999999 187.78900000000004 736.372 187.17100000000005 Q 737.4169999999999 186.55400000000006 738.2529999999999 185.62300000000005 L 738.2529999999999 179.84700000000004 Q 734.1009999999999 179.91300000000004 732.1439999999999 181.01500000000004 Q 730.1969999999999 182.11700000000005 730.1969999999999 184.32100000000005 Q 730.1969999999999 186.16400000000004 731.2989999999999 186.97100000000006 Q 732.4009999999998 187.78800000000007 733.9489999999998 187.78800000000007 M 746.3009999999998 180.01800000000006 Q 746.3009999999998 174.88800000000006 748.2009999999998 172.28500000000005 Q 750.0909999999998 169.69100000000006 753.4829999999998 169.69100000000006 Q 756.0469999999998 169.69100000000006 757.4909999999999 171.17300000000006 L 757.4909999999999 163.19300000000007 L 760.3789999999999 163.19300000000007 L 760.3789999999999 189.72700000000006 L 757.8519999999999 189.72700000000006 L 757.7099999999998 187.26700000000005 Q 756.7699999999998 188.60700000000006 755.4679999999998 189.34700000000007 Q 754.1669999999998 190.08800000000008 752.5419999999998 190.08800000000008 Q 751.2499999999998 190.08800000000008 750.0909999999998 189.54600000000008 Q 748.9319999999998 189.00400000000008 748.1059999999998 187.7980000000001 Q 747.2789999999998 186.58200000000008 746.7849999999997 184.6730000000001 Q 746.3009999999997 182.75400000000008 746.3009999999997 180.0180000000001 M 753.2349999999997 187.7030000000001 Q 754.4989999999997 187.7030000000001 755.5249999999996 187.0570000000001 Q 756.5509999999996 186.4020000000001 757.4909999999996 185.1770000000001 L 757.4909999999996 173.4820000000001 Q 756.6649999999996 172.6180000000001 755.7809999999996 172.2380000000001 Q 754.8889999999996 171.85800000000012 754.0619999999996 171.85800000000012 Q 753.0169999999996 171.85800000000012 752.1519999999996 172.2850000000001 Q 751.2789999999995 172.72200000000012 750.6519999999996 173.7010000000001 Q 750.0149999999996 174.6710000000001 749.6729999999995 176.2560000000001 Q 749.3309999999996 177.85200000000012 749.3309999999996 180.19900000000013 Q 749.3309999999996 182.36500000000012 749.6259999999995 183.80900000000014 Q 749.9109999999995 185.25300000000013 750.4139999999995 186.11700000000013 Q 750.9169999999996 186.98100000000014 751.6399999999995 187.34300000000013 Q 752.3629999999995 187.70500000000013 753.2359999999995 187.70300000000015 M 778.0209999999995 185.04300000000015 L 780.3009999999995 186.44900000000015 Q 779.3599999999994 187.93100000000015 777.6589999999994 189.01400000000015 Q 775.9689999999994 190.09700000000015 773.4409999999995 190.09700000000015 Q 771.6649999999995 190.09700000000015 770.2209999999994 189.49900000000014 Q 768.7769999999994 188.90100000000012 767.7319999999994 187.67500000000013 Q 766.6869999999994 186.44900000000013 766.1069999999994 184.58700000000013 Q 765.5279999999995 182.73500000000013 765.5279999999995 180.17000000000013 Q 765.5279999999995 177.42400000000012 766.1259999999994 175.44000000000014 Q 766.7249999999995 173.45300000000015 767.7889999999994 172.17100000000013 Q 768.8529999999994 170.88900000000012 770.2779999999995 170.29900000000012 Q 771.7029999999994 169.7010000000001 773.3279999999994 169.7010000000001 Q 775.1319999999994 169.7010000000001 776.4909999999994 170.29900000000012 Q 777.8399999999995 170.88900000000012 778.7419999999994 172.20900000000012 Q 779.6449999999994 173.5290000000001 780.1009999999994 175.58100000000013 Q 780.5469999999995 177.64200000000014 780.5469999999995 180.56900000000013 L 768.4919999999995 180.56900000000013 Q 768.5299999999995 182.62100000000012 768.9479999999995 184.01700000000014 Q 769.3559999999995 185.40400000000014 770.0399999999995 186.23100000000014 Q 770.7339999999995 187.06700000000015 771.6549999999995 187.42800000000014 Q 772.5669999999996 187.78800000000015 773.6219999999995 187.78800000000015 Q 774.4859999999995 187.78800000000015 775.1889999999995 187.51300000000015 Q 775.8919999999995 187.24700000000016 776.4339999999995 186.84800000000016 Q 776.9749999999996 186.44900000000015 777.3739999999996 185.96500000000015 Q 777.7739999999995 185.47000000000014 778.0199999999995 185.04300000000015 M 773.3269999999995 171.93300000000016 Q 771.3039999999995 171.93300000000016 770.0779999999995 173.45300000000017 Q 768.8519999999995 174.97300000000018 768.5679999999995 178.25000000000017 L 777.5549999999995 178.25000000000017 Q 777.4789999999995 176.48300000000017 777.1749999999995 175.27700000000016 Q 776.8709999999995 174.07000000000016 776.3299999999995 173.32900000000015 Q 775.7879999999994 172.58900000000014 775.0469999999995 172.26500000000016 Q 774.3059999999995 171.93300000000016 773.3269999999994 171.93300000000016 M 801.2109999999994 190.09700000000015 Q 798.7879999999994 190.09700000000015 797.1449999999994 189.15700000000015 Q 795.5009999999994 188.21700000000016 794.5319999999994 186.37300000000016 L 797.0589999999994 185.08100000000016 Q 797.5619999999994 186.23100000000017 798.7029999999994 186.97100000000015 Q 799.8329999999994 187.71200000000016 801.2769999999994 187.71200000000016 Q 801.9989999999993 187.71200000000016 802.6929999999994 187.51300000000015 Q 803.3769999999994 187.31300000000016 803.9179999999994 186.90500000000014 Q 804.4599999999995 186.48700000000014 804.7819999999995 185.88800000000015 Q 805.1059999999994 185.29000000000013 805.1059999999994 184.46300000000014 Q 805.1059999999994 183.41800000000015 804.6969999999994 182.78300000000013 Q 804.2789999999994 182.15500000000014 803.5949999999995 181.73700000000014 Q 802.9019999999995 181.31900000000013 802.0179999999995 181.07200000000014 Q 801.1349999999994 180.81500000000014 800.2319999999995 180.53000000000014 Q 797.6669999999995 179.73200000000014 796.4799999999996 178.42100000000013 Q 795.2919999999996 177.10100000000014 795.2919999999996 175.15300000000013 Q 795.2919999999996 173.81400000000014 795.7959999999996 172.80700000000013 Q 796.2989999999996 171.79000000000013 797.1639999999996 171.10700000000014 Q 798.0279999999997 170.42200000000014 799.1489999999997 170.06100000000015 Q 800.2699999999996 169.70100000000014 801.4959999999996 169.70100000000014 Q 803.8799999999997 169.70100000000014 805.5239999999997 170.66900000000012 Q 807.1669999999997 171.64900000000011 807.8889999999997 173.37700000000012 L 805.3239999999996 174.46000000000012 Q 804.8209999999996 173.27200000000013 803.9369999999997 172.6070000000001 Q 803.0539999999996 171.9330000000001 801.4569999999997 171.9330000000001 Q 800.8119999999997 171.9330000000001 800.2319999999996 172.1130000000001 Q 799.6519999999996 172.29300000000012 799.1869999999997 172.64500000000012 Q 798.7219999999996 172.98700000000014 798.4459999999997 173.5290000000001 Q 798.1799999999997 174.0700000000001 798.1799999999997 174.8210000000001 Q 798.1799999999997 175.5810000000001 798.4459999999997 176.1220000000001 Q 798.7219999999996 176.6640000000001 799.2819999999997 177.0630000000001 Q 799.8329999999997 177.4630000000001 800.7259999999997 177.7850000000001 Q 801.6099999999997 178.10800000000012 802.7969999999997 178.4690000000001 Q 805.1819999999997 179.19100000000012 806.6069999999996 180.5110000000001 Q 808.0319999999996 181.8310000000001 808.0319999999996 184.1780000000001 Q 808.0319999999996 185.50800000000012 807.5279999999996 186.59100000000012 Q 807.0249999999995 187.67400000000012 806.1219999999996 188.45300000000012 Q 805.2189999999997 189.2320000000001 803.9559999999996 189.6600000000001 Q 802.6929999999995 190.09700000000012 801.2109999999996 190.09700000000012 M 815.8689999999996 166.68900000000014 L 812.5439999999995 166.68900000000014 L 812.5439999999995 163.19300000000013 L 815.8689999999996 163.19300000000013 Z M 815.6509999999996 189.72700000000015 L 812.7629999999996 189.72700000000015 L 812.7629999999996 170.23300000000015 L 815.6509999999996 170.23300000000015 Z M 824.3039999999996 189.72700000000015 L 821.4159999999996 189.72700000000015 L 821.4159999999996 170.23300000000015 L 823.8669999999996 170.23300000000015 L 824.0479999999997 172.50300000000016 Q 825.0639999999996 170.99300000000017 826.4129999999997 170.33700000000016 Q 827.7719999999997 169.69100000000017 829.1399999999996 169.69100000000017 Q 830.9069999999997 169.69100000000017 832.1899999999996 170.39400000000018 Q 833.4729999999995 171.09700000000018 834.1939999999996 172.7600000000002 Q 835.2389999999996 171.1360000000002 836.7399999999997 170.41300000000018 Q 838.2409999999998 169.69000000000017 839.6849999999997 169.69100000000017 Q 840.9479999999998 169.69100000000017 841.9929999999997 169.99500000000018 Q 843.0379999999997 170.29900000000018 843.7979999999997 171.02100000000019 Q 844.5579999999997 171.7430000000002 844.9669999999996 172.97800000000018 Q 845.3849999999996 174.20400000000018 845.3849999999996 176.04800000000017 L 845.3849999999996 189.72800000000018 L 842.4969999999996 189.72800000000018 L 842.4969999999996 176.5880000000002 Q 842.4969999999996 175.2490000000002 842.2789999999997 174.36500000000018 Q 842.0599999999996 173.48200000000017 841.6509999999996 172.95900000000017 Q 841.2329999999996 172.43700000000018 840.5869999999996 172.23700000000017 Q 839.9319999999997 172.03800000000015 839.0669999999997 172.03800000000015 Q 837.6989999999996 172.03800000000015 836.6829999999997 172.82600000000016 Q 835.6759999999997 173.62400000000017 834.8399999999997 174.96400000000017 L 834.8399999999997 189.72700000000017 L 831.9519999999997 189.72700000000017 L 831.9519999999997 176.22700000000017 Q 831.9519999999997 172.03800000000018 828.5219999999997 172.03800000000018 Q 827.1539999999997 172.03800000000018 826.1469999999997 172.8260000000002 Q 825.1309999999997 173.6240000000002 824.3039999999997 174.9640000000002 Z M 854.0969999999996 196.23400000000015 L 851.2089999999996 196.23400000000015 L 851.2089999999996 170.24200000000016 L 853.6599999999996 170.24200000000016 L 853.8399999999996 172.55200000000016 Q 854.7809999999996 171.21200000000016 856.1019999999995 170.46200000000016 Q 857.4119999999995 169.70200000000017 859.0369999999995 169.70200000000017 Q 860.3389999999995 169.70200000000017 861.4599999999995 170.22300000000016 Q 862.5799999999995 170.74600000000015 863.3879999999995 171.90500000000014 Q 864.2049999999995 173.05500000000015 864.6519999999995 174.95500000000015 Q 865.1079999999995 176.84500000000014 865.1079999999995 179.59000000000015 Q 865.1079999999995 184.72000000000014 863.3029999999995 187.41000000000014 Q 861.4979999999996 190.10000000000014 858.1059999999995 190.09700000000015 Q 856.8429999999995 190.09700000000015 855.8259999999996 189.66000000000014 Q 854.8189999999996 189.23300000000015 854.0969999999995 188.47300000000013 Z M 858.3529999999996 172.08500000000015 Q 857.0899999999996 172.08500000000015 856.0629999999996 172.78800000000015 Q 855.0359999999997 173.49100000000016 854.0969999999996 174.75400000000016 L 854.0969999999996 186.19200000000015 Q 854.9239999999996 187.09500000000014 855.8069999999997 187.51300000000015 Q 856.6909999999997 187.93100000000015 857.5269999999997 187.93100000000015 Q 858.5719999999997 187.93100000000015 859.3979999999997 187.47500000000016 Q 860.2339999999997 187.02800000000016 860.8329999999996 186.01200000000017 Q 861.4219999999997 185.00500000000017 861.7449999999997 183.38000000000017 Q 862.0769999999997 181.75600000000017 862.0769999999997 179.41000000000017 Q 862.0769999999997 177.24300000000017 861.8209999999997 175.83700000000016 Q 861.5649999999997 174.43100000000015 861.0799999999997 173.59500000000017 Q 860.5949999999997 172.76900000000018 859.9109999999997 172.42700000000016 Q 859.2179999999997 172.08500000000015 858.3529999999997 172.08500000000015 M 870.5789999999997 189.72700000000015 L 870.5789999999997 165.54 L 867.9089999999998 165.54 L 868.2699999999998 163.19299999999998 L 873.4669999999998 163.19299999999998 L 873.4669999999998 189.72699999999998 Z M 891.1279999999997 185.04300000000015 L 893.3979999999997 186.44900000000015 Q 892.4579999999996 187.93100000000015 890.7669999999997 189.01400000000015 Q 889.0659999999997 190.09700000000015 886.5389999999998 190.09700000000015 Q 884.7719999999997 190.09700000000015 883.3279999999997 189.49900000000014 Q 881.8839999999998 188.90000000000015 880.8389999999997 187.67500000000013 Q 879.7849999999997 186.44900000000013 879.2149999999997 184.58700000000013 Q 878.6349999999996 182.73500000000013 878.6349999999996 180.17000000000013 Q 878.6349999999996 177.42400000000012 879.2329999999996 175.44000000000014 Q 879.8229999999996 173.45300000000015 880.8859999999996 172.17100000000013 Q 881.9489999999996 170.88900000000012 883.3849999999996 170.29900000000012 Q 884.8099999999996 169.7010000000001 886.4349999999996 169.7010000000001 Q 888.2399999999996 169.7010000000001 889.5889999999996 170.29900000000012 Q 890.9469999999995 170.88900000000012 891.8489999999996 172.20900000000012 Q 892.7519999999996 173.5290000000001 893.1989999999996 175.58100000000013 Q 893.6549999999996 177.64200000000014 893.6549999999996 180.56900000000013 L 881.59 180.56900000000013 Q 881.628 182.62100000000012 882.046 184.01700000000014 Q 882.464 185.40400000000014 883.148 186.23100000000014 Q 883.832 187.06700000000015 884.753 187.42800000000014 Q 885.6740000000001 187.78900000000013 886.719 187.78800000000015 Q 887.5840000000001 187.78800000000015 888.287 187.51300000000015 Q 888.99 187.24700000000016 889.532 186.84800000000016 Q 890.0730000000001 186.44900000000015 890.4720000000001 185.96500000000015 Q 890.8710000000001 185.47000000000014 891.128 185.04300000000015 M 886.4350000000001 171.93300000000016 Q 884.4110000000001 171.93300000000016 883.1850000000001 173.45300000000017 Q 881.95 174.97300000000018 881.6650000000001 178.25000000000017 L 890.652 178.25000000000017 Q 890.586 176.48300000000017 890.272 175.27700000000016 Q 889.9680000000001 174.07000000000016 889.427 173.32900000000015 Q 888.886 172.58800000000014 888.145 172.26500000000016 Q 887.404 171.93300000000016 886.435 171.93300000000016" stroke-linecap="round"/>
</g>
    <g transform="matrix(1 0 0 1 0 0)">
<path style="stroke: rgb(255,255,255); stroke-opacity: 0; stroke-width: 1; stroke-dasharray: none; stroke-linecap: butt; stroke-dashoffset: 0; stroke-linejoin: miter; stroke-miterlimit: 4; fill: rgb(255,255,255); fill-opacity: 0; fill-rule: nonzero; opacity: 1;" vector-effect="non-scaling-stroke" transform=" translate(-750, -99.5)" d="M 471.5 0 L 1028.5 0 L 1028.5 199 L 471.5 199 z" stroke-linecap="round"/>
</g>
</g>
</g>
</svg>
