<?xml version="1.0" standalone="no"?>
<!DOCTYPE svg PUBLIC "-//W3C//DTD SVG 20010904//EN"
 "http://www.w3.org/TR/2001/REC-SVG-20010904/DTD/svg10.dtd">
<svg version="1.0" xmlns="http://www.w3.org/2000/svg"
 width="96.000000pt" height="96.000000pt" viewBox="0 0 96.000000 96.000000"
 preserveAspectRatio="xMidYMid meet">

<g transform="translate(0.000000,96.000000) scale(0.100000,-0.100000)"
fill="#000000" stroke="none">
<path d="M387 909 c-96 -23 -209 -113 -244 -197 -44 -105 -57 -273 -29 -380
32 -119 107 -211 210 -259 55 -25 72 -28 171 -28 103 0 114 2 176 31 36 17 83
48 104 69 40 41 85 126 85 163 0 21 -4 22 -69 22 -74 0 -101 -6 -101 -22 0
-22 -44 -70 -81 -88 -81 -42 -179 -35 -248 17 -19 15 -45 51 -60 82 -23 49
-26 69 -26 161 0 92 3 112 26 161 49 103 149 148 259 116 59 -17 95 -47 127
-107 20 -35 20 -35 96 -38 l77 -3 0 28 c0 34 -32 105 -66 150 -78 103 -258
157 -407 122z"/>
</g>
</svg>
